# xmcd
#
# Track frame offsets:
#	150
#	15845
#	30622
#	45125
#	59336
#	73924
#	89001
#	101611
#	114899
#	128415
#	143006
#	158960
#	173752
#	188331
#	201651
#	215189
#	228180
#	242999
#
# Disc length: 3416 seconds
#
# Revision: 3
# Processed by: cddbd v1.5.2PL0 Copyright (c) Steve Scherf et al.
# Submitted via: audiograbber 1.83.01
#
DISCID=ef0d5612
DTITLE=Tommy Dorsey and His Orchestra - The Big Band Era [CD 5)
DYEAR=2005
DGENRE=Jazz
TTITLE0=The Song Is You
TTITLE1=Come Rain Or Come Shine
TTITLE2=Hollywood Hat
TTITLE3=Then I'll Be Happy
TTITLE4=Tom Foolery
TTITLE5=Bingo, Bango, Boffo
TTITLE6=At Sundown
TTITLE7=How Are Things In Glocca Morra?
TTITLE8=Trombonology
TTITLE9=Drumology
TTITLE10=The Continental
TTITLE11=Puddle Wump
TTITLE12=Pussy Willow
TTITLE13=The Hucklebuck
TTITLE14=Summertime
TTITLE15=I Get A Kick Out Of You
TTITLE16=Comin' Through The Rye
TTITLE17=Birmingham Bounce
EXTD=Aufnahmen 1946-1950
EXTT0=
EXTT1=
EXTT2=
EXTT3=
EXTT4=
EXTT5=
EXTT6=
EXTT7=
EXTT8=
EXTT9=
EXTT10=
EXTT11=
EXTT12=
EXTT13=
EXTT14=
EXTT15=
EXTT16=
EXTT17=
PLAYORDER=
